<svg xmlns="http://www.w3.org/2000/svg" viewBox="0 0 330.888 53.686"><defs><style>.cls-1{fill:#555}.cls-2{fill:#2c3d4f}</style></defs><title>2Datový zdroj 2_120</title><g id="Vrstva_2" data-name="Vrstva 2"><g id="Vrstva_1-2" data-name="Vrstva 1"><path d="M1.54,43.4932l1.9805-4.4449A17.0672,17.0672,0,0,0,13.686,42.437c4.7964,0,6.8208-1.7163,6.8208-4.0049,0-6.645-18.3066-2.2881-18.3066-13.73,0-4.9726,3.9609-9.1972,12.41-9.1972a19.476,19.476,0,0,1,10.2534,2.7285L23.06,22.6782a17.1179,17.1179,0,0,0-8.4937-2.42c-4.7524,0-6.6889,1.8482-6.6889,4.1807,0,6.5566,18.2626,2.2881,18.2626,13.5976,0,4.9287-4.0043,9.1534-12.4536,9.1534C8.8892,47.19,4.0928,45.6934,1.54,43.4932Z" class="cls-1" transform="translate(-1.54 -1.6006)"/><path d="M27.4561,16.0771a3.3508,3.3508,0,0,1,3.5205-3.3007,3.2755,3.2755,0,0,1,3.5205,3.1689,3.3771,3.3771,0,0,1-3.5205,3.4321A3.35,3.35,0,0,1,27.4561,16.0771Zm.748,7.1729h5.501V46.75h-5.501Z" class="cls-1" transform="translate(-1.54 -1.6006)"/><path d="M77.1377,33.2837V46.75h-5.501V33.9878c0-4.1807-1.936-6.2051-5.2807-6.2051-3.6084,0-6.1167,2.3765-6.1167,7.041V46.75h-5.501V33.9878c0-4.1807-1.9361-6.2051-5.2808-6.2051-3.6523,0-6.1167,2.3765-6.1167,7.041V46.75H37.84V23.25h5.2369v2.9927a9.7332,9.7332,0,0,1,7.7011-3.2564c3.4326,0,6.293,1.2759,7.9214,3.9165A10.9674,10.9674,0,0,1,67.5,22.9863C73.1772,22.9863,77.1377,26.1987,77.1377,33.2837Z" class="cls-1" transform="translate(-1.54 -1.6006)"/><path d="M106.043,35c0,7.3047-5.0606,12.0576-11.9258,12.0576a9.655,9.655,0,0,1-7.5249-3.1684V55.2866h-5.501V23.25h5.2368v3.0806a9.69,9.69,0,0,1,7.7891-3.3443C100.9824,22.9863,106.043,27.7388,106.043,35Zm-5.5889,0c0-4.4888-2.9922-7.3491-6.9531-7.3491S86.5044,30.5112,86.5044,35s3.0361,7.3486,6.9966,7.3486S100.4541,39.4883,100.4541,35Z" class="cls-1" transform="translate(-1.54 -1.6006)"/><path d="M108.1948,14.0967h5.501V46.75h-5.501Z" class="cls-1" transform="translate(-1.54 -1.6006)"/><path d="M139.834,36.76H121.395c.66,3.4321,3.52,5.6328,7.6133,5.6328a8.422,8.422,0,0,0,6.3809-2.5528l2.9487,3.3887c-2.1123,2.5083-5.4131,3.8286-9.4614,3.8286-7.8775,0-12.982-5.06-12.982-12.0576S121.043,22.9863,128.04,22.9863c6.8653,0,11.8819,4.7964,11.8819,12.1455C139.9219,35.5718,139.8779,36.2319,139.834,36.76Zm-18.4829-3.6529h13.334a6.3973,6.3973,0,0,0-6.6451-5.7207A6.4946,6.4946,0,0,0,121.3511,33.1074Z" class="cls-1" transform="translate(-1.54 -1.6006)"/><path d="M171.9961,40.0405H157.3682l-2.585,6.709H141.585L158.4131,8.2549h12.7578L187.999,46.75H174.5811Zm-3.5742-9.3491-3.74-9.6787-3.7392,9.6787Z" class="cls-2" transform="translate(-1.54 -1.6006)"/><path d="M221.88,5.9448V46.75H210.0557V44.2749c-1.8145,2.0347-4.5088,3.0244-8.2481,3.0244-7.8642,0-14.5185-5.9389-14.5185-15.6177s6.6543-15.5629,14.5185-15.5629c3.2988,0,5.8291.8247,7.6436,2.5844V5.9448Zm-12.209,25.7368c0-3.9047-2.1445-5.8842-4.8945-5.8842s-4.8936,1.98-4.8936,5.8842,2.1445,5.939,4.8936,5.939S209.6709,35.5859,209.6709,31.6816Z" class="cls-2" transform="translate(-1.54 -1.6006)"/><path d="M278.0859,29.5918V46.75H265.6572V31.7363c0-3.7392-1.374-5.1689-3.3545-5.1689-2.1992,0-3.9043,1.4844-3.9043,5.499V46.75H245.97V31.7363c0-3.7392-1.2646-5.1689-3.3545-5.1689-2.1992,0-3.9043,1.4844-3.9043,5.499V46.75H226.2832V16.6685h11.8232v2.8046a11.7387,11.7387,0,0,1,8.5235-3.3544c3.9043,0,7.3144,1.43,9.4043,4.5644a12.7412,12.7412,0,0,1,10.0635-4.5644C272.917,16.1187,278.0859,20.1328,278.0859,29.5918Z" class="cls-2" transform="translate(-1.54 -1.6006)"/><path d="M281.1182,7.9248c0-3.5747,2.915-6.3242,7.4795-6.3242s7.4785,2.53,7.4785,6.104c0,3.7944-2.9141,6.5444-7.4785,6.5444S281.1182,11.499,281.1182,7.9248Zm1.2656,8.7437h12.4277V46.75H282.3838Z" class="cls-2" transform="translate(-1.54 -1.6006)"/><path d="M332.4277,29.5918V46.75H320V31.7363c0-3.7392-1.43-5.1689-3.6846-5.1689-2.53,0-4.6748,1.5947-4.6748,6.0488V46.75H299.2129V16.6685h11.8232v2.97a12.5266,12.5266,0,0,1,9.0733-3.52C327.0391,16.1187,332.4277,20.1328,332.4277,29.5918Z" class="cls-2" transform="translate(-1.54 -1.6006)"/></g></g></svg>